<svg width="70" height="70" viewBox="0 0 70 70" fill="none" xmlns="http://www.w3.org/2000/svg">
<g id="eva:checkmark-circle-2-fill">
<path id="Vector" d="M35 5.83337C29.2314 5.83337 23.5923 7.54397 18.7959 10.7488C13.9994 13.9537 10.2611 18.5089 8.05352 23.8384C5.84597 29.168 5.26837 35.0324 6.39377 40.6902C7.51917 46.348 10.297 51.545 14.3761 55.624C18.4551 59.703 23.6521 62.4809 29.3099 63.6063C34.9677 64.7317 40.8321 64.1541 46.1616 61.9465C51.4911 59.739 56.0463 56.0006 59.2512 51.2042C62.4561 46.4077 64.1667 40.7687 64.1667 35C64.1667 31.1698 63.4123 27.3771 61.9465 23.8384C60.4807 20.2998 58.3323 17.0845 55.624 14.3761C52.9156 11.6677 49.7003 9.51932 46.1616 8.05355C42.6229 6.58779 38.8302 5.83337 35 5.83337ZM47.5417 28.0292L34.2125 45.5292C33.9408 45.8822 33.5919 46.1682 33.1924 46.3654C32.793 46.5626 32.3538 46.6656 31.9083 46.6667C31.4653 46.6691 31.0276 46.5705 30.6283 46.3785C30.2291 46.1864 29.8788 45.906 29.6042 45.5584L22.4875 36.4875C22.2519 36.185 22.0783 35.8389 21.9765 35.4692C21.8746 35.0995 21.8466 34.7134 21.894 34.3329C21.9414 33.9523 22.0633 33.5849 22.2527 33.2515C22.4421 32.918 22.6953 32.6252 22.9979 32.3896C23.609 31.9139 24.3841 31.7004 25.1526 31.7961C25.5331 31.8435 25.9006 31.9654 26.234 32.1548C26.5674 32.3442 26.8603 32.5975 27.0958 32.9L31.85 38.9667L42.875 24.3834C43.1087 24.077 43.4004 23.8196 43.7335 23.6259C44.0666 23.4322 44.4346 23.306 44.8165 23.2546C45.1984 23.2031 45.5866 23.2274 45.9592 23.326C46.3317 23.4246 46.6811 23.5956 46.9875 23.8292C47.2939 24.0629 47.5513 24.3546 47.745 24.6877C47.9387 25.0208 48.0649 25.3888 48.1163 25.7707C48.1678 26.1526 48.1435 26.5408 48.0449 26.9133C47.9463 27.2859 47.7753 27.6353 47.5417 27.9417V28.0292Z" fill="#0FA958"/>
</g>
</svg>
