<svg width="36" height="37" viewBox="0 0 36 37" fill="none" xmlns="http://www.w3.org/2000/svg">
<rect width="36" height="37" fill="#D2CACA" fill-opacity="0.5"/>
<g clip-path="url(#clip0_2_5)">
<rect width="1440" height="6795" transform="translate(-1234 -5404)" fill="white"/>
<mask id="path-1-inside-1_2_5" fill="white">
<path d="M-1134 -19H106V56H-1134V-19Z"/>
</mask>
<path d="M106 54H-1134V58H106V54Z" fill="#9C9C9C" mask="url(#path-1-inside-1_2_5)"/>
<g clip-path="url(#clip1_2_5)">
<path fill-rule="evenodd" clip-rule="evenodd" d="M19.0605 24.0603C18.7792 24.3415 18.3978 24.4995 18 24.4995C17.6023 24.4995 17.2208 24.3415 16.9395 24.0603L8.45403 15.5748C8.31076 15.4365 8.19649 15.2709 8.11787 15.0879C8.03926 14.9049 7.99788 14.7081 7.99615 14.5089C7.99442 14.3098 8.03237 14.1122 8.10779 13.9279C8.18322 13.7436 8.29459 13.5761 8.43543 13.4352C8.57627 13.2944 8.74375 13.183 8.92809 13.1076C9.11244 13.0322 9.30996 12.9942 9.50913 12.996C9.7083 12.9977 9.90513 13.0391 10.0881 13.1177C10.2711 13.1963 10.4367 13.3106 10.575 13.4538L18 20.8788L25.425 13.4538C25.7079 13.1806 26.0868 13.0294 26.4801 13.0328C26.8734 13.0362 27.2496 13.194 27.5278 13.4721C27.8059 13.7502 27.9636 14.1264 27.967 14.5197C27.9705 14.913 27.8193 15.2919 27.546 15.5748L19.0605 24.0603Z" fill="#1C1C1C"/>
</g>
</g>
<defs>
<clipPath id="clip0_2_5">
<rect width="1440" height="6795" fill="white" transform="translate(-1234 -5404)"/>
</clipPath>
<clipPath id="clip1_2_5">
<rect width="36" height="36" fill="white" transform="matrix(0 -1 1 0 0 36.5)"/>
</clipPath>
</defs>
</svg>
