<svg width="24" height="24" viewBox="0 0 24 24" fill="none" xmlns="http://www.w3.org/2000/svg">
<g id="material-symbols:calendar-clock">
<path id="Vector" d="M5 22C4.45 22 3.97933 21.8043 3.588 21.413C3.19667 21.0217 3.00067 20.5507 3 20V6C3 5.45 3.196 4.97933 3.588 4.588C3.98 4.19667 4.45067 4.00067 5 4H6V2H8V4H16V2H18V4H19C19.55 4 20.021 4.196 20.413 4.588C20.805 4.98 21.0007 5.45067 21 6V10.675C21 10.9583 20.904 11.196 20.712 11.388C20.52 11.58 20.2827 11.6757 20 11.675C19.7173 11.6743 19.48 11.5783 19.288 11.387C19.096 11.1957 19 10.9583 19 10.675V10H5V20H10.8C11.0833 20 11.321 20.096 11.513 20.288C11.705 20.48 11.8007 20.7173 11.8 21C11.7993 21.2827 11.7033 21.5203 11.512 21.713C11.3207 21.9057 11.0833 22.0013 10.8 22H5ZM18 23C16.6167 23 15.4377 22.5123 14.463 21.537C13.4883 20.5617 13.0007 19.3827 13 18C12.9993 16.6173 13.487 15.4383 14.463 14.463C15.439 13.4877 16.618 13 18 13C19.382 13 20.5613 13.4877 21.538 14.463C22.5147 15.4383 23.002 16.6173 23 18C22.998 19.3827 22.5103 20.562 21.537 21.538C20.5637 22.514 19.3847 23.0013 18 23ZM19.675 20.375L20.375 19.675L18.5 17.8V15H17.5V18.2L19.675 20.375Z" fill="#666666"/>
</g>
</svg>
