<svg width="16" height="16" viewBox="0 0 16 16" fill="none" xmlns="http://www.w3.org/2000/svg">
<g id="ph:x-bold" clip-path="url(#clip0_4638_778)">
<path id="Vector" d="M15.5459 13.9541C15.7573 14.1654 15.876 14.4521 15.876 14.751C15.876 15.0499 15.7573 15.3365 15.5459 15.5479C15.3346 15.7592 15.0479 15.8779 14.7491 15.8779C14.4502 15.8779 14.1635 15.7592 13.9522 15.5479L8 9.59379L2.04593 15.546C1.83459 15.7573 1.54795 15.8761 1.24906 15.8761C0.950174 15.8761 0.663529 15.7573 0.452185 15.546C0.240841 15.3346 0.122108 15.048 0.122108 14.7491C0.122108 14.4502 0.240841 14.1636 0.452185 13.9522L6.40625 8.00004L0.45406 2.04598C0.242715 1.83464 0.123983 1.54799 0.123984 1.2491C0.123984 0.950219 0.242715 0.663574 0.45406 0.45223C0.665404 0.240885 0.952049 0.122153 1.25093 0.122153C1.54982 0.122153 1.83647 0.240885 2.04781 0.45223L8 6.40629L13.9541 0.451292C14.1654 0.239948 14.452 0.121216 14.7509 0.121216C15.0498 0.121216 15.3365 0.239948 15.5478 0.451292C15.7592 0.662636 15.8779 0.949281 15.8779 1.24817C15.8779 1.54705 15.7592 1.8337 15.5478 2.04504L9.59375 8.00004L15.5459 13.9541Z" fill="#D9D9D9"/>
</g>
<defs>
<clipPath id="clip0_4638_778">
<rect width="16" height="16" fill="white"/>
</clipPath>
</defs>
</svg>
