<svg width="24" height="25" viewBox="0 0 24 25" fill="none" xmlns="http://www.w3.org/2000/svg">
<g id="material-symbols:calendar-clock">
<path id="Vector" d="M5 22.5C4.45 22.5 3.97933 22.3043 3.588 21.913C3.19667 21.5217 3.00067 21.0507 3 20.5V6.5C3 5.95 3.196 5.47933 3.588 5.088C3.98 4.69667 4.45067 4.50067 5 4.5H6V2.5H8V4.5H16V2.5H18V4.5H19C19.55 4.5 20.021 4.696 20.413 5.088C20.805 5.48 21.0007 5.95067 21 6.5V11.175C21 11.4583 20.904 11.696 20.712 11.888C20.52 12.08 20.2827 12.1757 20 12.175C19.7173 12.1743 19.48 12.0783 19.288 11.887C19.096 11.6957 19 11.4583 19 11.175V10.5H5V20.5H10.8C11.0833 20.5 11.321 20.596 11.513 20.788C11.705 20.98 11.8007 21.2173 11.8 21.5C11.7993 21.7827 11.7033 22.0203 11.512 22.213C11.3207 22.4057 11.0833 22.5013 10.8 22.5H5ZM18 23.5C16.6167 23.5 15.4377 23.0123 14.463 22.037C13.4883 21.0617 13.0007 19.8827 13 18.5C12.9993 17.1173 13.487 15.9383 14.463 14.963C15.439 13.9877 16.618 13.5 18 13.5C19.382 13.5 20.5613 13.9877 21.538 14.963C22.5147 15.9383 23.002 17.1173 23 18.5C22.998 19.8827 22.5103 21.062 21.537 22.038C20.5637 23.014 19.3847 23.5013 18 23.5ZM19.675 20.875L20.375 20.175L18.5 18.3V15.5H17.5V18.7L19.675 20.875Z" fill="white"/>
</g>
</svg>
