<svg width="36" height="37" viewBox="0 0 36 37" fill="none" xmlns="http://www.w3.org/2000/svg">
<g clip-path="url(#clip0_5242_3054)">
<path fill-rule="evenodd" clip-rule="evenodd" d="M19.0605 24.0608C18.7792 24.342 18.3978 24.5 18 24.5C17.6023 24.5 17.2208 24.342 16.9395 24.0608L8.45403 15.5753C8.31076 15.437 8.19649 15.2714 8.11787 15.0884C8.03926 14.9054 7.99788 14.7086 7.99615 14.5094C7.99442 14.3103 8.03237 14.1127 8.10779 13.9284C8.18322 13.744 8.29459 13.5766 8.43543 13.4357C8.57627 13.2949 8.74375 13.1835 8.92809 13.1081C9.11244 13.0327 9.30996 12.9947 9.50913 12.9964C9.7083 12.9982 9.90513 13.0396 10.0881 13.1182C10.2711 13.1968 10.4367 13.3111 10.575 13.4543L18 20.8793L25.425 13.4543C25.7079 13.1811 26.0868 13.0299 26.4801 13.0333C26.8734 13.0367 27.2496 13.1945 27.5278 13.4726C27.8059 13.7507 27.9636 14.1269 27.967 14.5202C27.9705 14.9135 27.8193 15.2924 27.546 15.5753L19.0605 24.0608Z" fill="white"/>
</g>
<defs>
<clipPath id="clip0_5242_3054">
<rect width="36" height="36" fill="white" transform="matrix(0 -1 1 0 0 36.5)"/>
</clipPath>
</defs>
</svg>
