<svg width="26" height="27" viewBox="0 0 26 27" fill="none" xmlns="http://www.w3.org/2000/svg">
<g id="dark_mode">
<mask id="mask0_5284_3792" style="mask-type:alpha" maskUnits="userSpaceOnUse" x="0" y="0" width="26" height="27">
<rect id="Bounding box" y="0.5" width="26" height="26" fill="#D9D9D9"/>
</mask>
<g mask="url(#mask0_5284_3792)">
<path id="dark_mode_2" d="M13 21.5C10.7778 21.5 8.88889 20.7222 7.33333 19.1667C5.77778 17.6111 5 15.7222 5 13.5C5 11.2778 5.77778 9.38889 7.33333 7.83333C8.88889 6.27778 10.7778 5.5 13 5.5C13.2074 5.5 13.4111 5.50741 13.6111 5.52222C13.8111 5.53704 14.0074 5.55926 14.2 5.58889C13.5926 6.01852 13.1074 6.57778 12.7444 7.26667C12.3815 7.95556 12.2 8.7 12.2 9.5C12.2 10.8333 12.6667 11.9667 13.6 12.9C14.5333 13.8333 15.6667 14.3 17 14.3C17.8148 14.3 18.563 14.1185 19.2444 13.7556C19.9259 13.3926 20.4815 12.9074 20.9111 12.3C20.9407 12.4926 20.963 12.6889 20.9778 12.8889C20.9926 13.0889 21 13.2926 21 13.5C21 15.7222 20.2222 17.6111 18.6667 19.1667C17.1111 20.7222 15.2222 21.5 13 21.5ZM13 19.7222C14.3037 19.7222 15.4741 19.363 16.5111 18.6444C17.5481 17.9259 18.3037 16.9889 18.7778 15.8333C18.4815 15.9074 18.1852 15.9667 17.8889 16.0111C17.5926 16.0556 17.2963 16.0778 17 16.0778C15.1778 16.0778 13.6259 15.437 12.3444 14.1556C11.063 12.8741 10.4222 11.3222 10.4222 9.5C10.4222 9.2037 10.4444 8.90741 10.4889 8.61111C10.5333 8.31481 10.5926 8.01852 10.6667 7.72222C9.51111 8.1963 8.57407 8.95185 7.85556 9.98889C7.13704 11.0259 6.77778 12.1963 6.77778 13.5C6.77778 15.2185 7.38519 16.6852 8.6 17.9C9.81482 19.1148 11.2815 19.7222 13 19.7222Z" fill="black"/>
</g>
</g>
</svg>
