<svg width="40" height="40" viewBox="0 0 40 40" fill="none" xmlns="http://www.w3.org/2000/svg">
<rect x="40" width="40" height="40" rx="20" transform="rotate(90 40 0)" fill="white"/>
<path d="M20 4.96729C11.7157 4.96729 5 11.7241 5 20.059C5 27.5917 10.4853 33.8351 17.6563 34.9673V24.4214H13.8476V20.059H17.6563V16.7341C17.6563 12.9517 19.8956 10.8625 23.3219 10.8625C24.9631 10.8625 26.6797 11.1572 26.6797 11.1572V14.8712H24.7882C22.9249 14.8712 22.3438 16.0345 22.3438 17.2281V20.059H26.5039L25.8389 24.4214H22.3438V34.9673C29.5147 33.8351 35 27.5917 35 20.059C35 11.7241 28.2842 4.96729 20 4.96729Z" fill="#233974"/>
</svg>
