<svg width="161" height="138" viewBox="0 0 161 138" fill="none" xmlns="http://www.w3.org/2000/svg">
<line x1="160" y1="137.033" x2="160" y2="0.000366211" stroke="#FE7A36" stroke-width="2"/>
<line x1="5" y1="66.0166" x2="156" y2="66.0166" stroke="#FE7A36" stroke-width="2"/>
<path d="M6.02 60V10.65H26.11C31.43 10.65 35.5133 11.77 38.36 14.01C41.2067 16.25 42.63 19.4 42.63 23.46C42.63 26.54 41.6967 29.1067 39.83 31.16C38.01 33.2133 35.5133 34.59 32.34 35.29V34.24C35.98 34.66 38.8033 35.92 40.81 38.02C42.8633 40.12 43.89 42.8967 43.89 46.35C43.89 50.7367 42.42 54.12 39.48 56.5C36.54 58.8333 32.3867 60 27.02 60H6.02ZM12.32 54.82H26.39C29.8433 54.82 32.55 54.1667 34.51 52.86C36.5167 51.5067 37.52 49.29 37.52 46.21C37.52 43.0833 36.5167 40.8667 34.51 39.56C32.55 38.2533 29.8433 37.6 26.39 37.6H12.32V54.82ZM12.32 32.42H25.2C28.8867 32.42 31.64 31.72 33.46 30.32C35.28 28.8733 36.19 26.7967 36.19 24.09C36.19 21.3833 35.28 19.33 33.46 17.93C31.64 16.4833 28.8867 15.76 25.2 15.76H12.32V32.42ZM55.8032 60V10.65H62.3132V60H55.8032ZM95.9302 60.63C89.1636 60.63 84.1236 58.9267 80.8102 55.52C77.5436 52.0667 75.9102 47.0033 75.9102 40.33V10.65H82.4902V40.12C82.4902 45.02 83.5636 48.7067 85.7102 51.18C87.8569 53.6533 91.2636 54.89 95.9302 54.89C100.41 54.89 103.77 53.6533 106.01 51.18C108.297 48.7067 109.44 45.02 109.44 40.12V10.65H115.88V40.33C115.88 47.0033 114.2 52.0667 110.84 55.52C107.48 58.9267 102.51 60.63 95.9302 60.63Z" fill="white"/>
<path d="M6.462 88.0166V76.0316H11.341C12.633 76.0316 13.6247 76.3036 14.316 76.8476C15.0073 77.3916 15.353 78.1566 15.353 79.1426C15.353 79.8906 15.1263 80.5139 14.673 81.0126C14.231 81.5113 13.6247 81.8456 12.854 82.0156V81.7606C13.738 81.8626 14.4237 82.1686 14.911 82.6786C15.4097 83.1886 15.659 83.8629 15.659 84.7016C15.659 85.7669 15.302 86.5886 14.588 87.1666C13.874 87.7333 12.8653 88.0166 11.562 88.0166H6.462ZM7.992 86.7586H11.409C12.2477 86.7586 12.905 86.5999 13.381 86.2826C13.8683 85.9539 14.112 85.4156 14.112 84.6676C14.112 83.9083 13.8683 83.3699 13.381 83.0526C12.905 82.7353 12.2477 82.5766 11.409 82.5766H7.992V86.7586ZM7.992 81.3186H11.12C12.0153 81.3186 12.684 81.1486 13.126 80.8086C13.568 80.4573 13.789 79.9529 13.789 79.2956C13.789 78.6383 13.568 78.1396 13.126 77.7996C12.684 77.4483 12.0153 77.2726 11.12 77.2726H7.992V81.3186ZM19.0665 88.0166V76.0316H20.6475V88.0166H19.0665ZM24.5489 88.0166V76.0316H26.1299V86.6566H32.0969V88.0166H24.5489ZM34.879 88.0166V76.0316H36.46V88.0166H34.879ZM40.3614 88.0166V76.0316H41.7554L46.4814 86.6736H45.9714L50.6974 76.0316H52.0744V88.0166H50.6294V78.1396H51.1564L46.7194 88.0166H45.7164L41.2794 78.1396H41.8064V88.0166H40.3614ZM56.004 88.0166V76.0316H57.585V81.4546H57.619L63.246 76.0316H65.235L58.707 82.2366L58.724 81.4716L65.694 88.0166H63.637L57.619 82.3896H57.585V88.0166H56.004ZM66.2058 88.0166L71.5098 76.0316H72.8868L78.2758 88.0166H76.6438L75.1648 84.6166L75.8448 85.0246H68.5518L69.2998 84.6166L67.8208 88.0166H66.2058ZM72.1728 77.7996L69.5208 84.0896L69.1128 83.7326H75.2838L74.9608 84.0896L72.2408 77.7996H72.1728ZM80.9806 88.0166V76.0316H82.2046L89.7186 85.9596H89.3106V76.0316H90.7896V88.0166H89.5826L82.0686 78.0886H82.4596V88.0166H80.9806ZM93.4734 88.0166L98.7774 76.0316H100.154L105.543 88.0166H103.911L102.432 84.6166L103.112 85.0246H95.8194L96.5674 84.6166L95.0884 88.0166H93.4734ZM99.4404 77.7996L96.7884 84.0896L96.3804 83.7326H102.551L102.228 84.0896L99.5084 77.7996H99.4404ZM6.462 109.017V97.0316H8.043V109.017H6.462ZM11.9444 109.017V97.0316H13.1684L20.6824 106.96H20.2744V97.0316H21.7534V109.017H20.5464L13.0324 99.0886H13.4234V109.017H11.9444ZM28.5342 109.017V98.3746H24.3862V97.0316H34.2972V98.3746H30.1322V109.017H28.5342ZM36.9874 109.017V97.0316H44.7394V98.3236H38.5174V102.285H44.3484V103.577H38.5174V107.725H44.7394V109.017H36.9874ZM48.0147 109.017V97.0316H52.9787C54.2594 97.0316 55.2454 97.3319 55.9367 97.9326C56.6394 98.5333 56.9907 99.3719 56.9907 100.449C56.9907 101.163 56.8321 101.769 56.5147 102.268C56.1974 102.766 55.7497 103.146 55.1717 103.407C54.6051 103.667 53.9421 103.798 53.1827 103.798L53.4717 103.56H53.8797C54.3444 103.56 54.7581 103.679 55.1207 103.917C55.4834 104.143 55.7837 104.517 56.0217 105.039L57.7217 109.017H55.9707L54.3217 105.073C54.1291 104.585 53.8457 104.268 53.4717 104.121C53.1091 103.973 52.6501 103.9 52.0947 103.9H49.5957V109.017H48.0147ZM49.5957 102.676H52.7407C53.6134 102.676 54.2764 102.489 54.7297 102.115C55.1944 101.741 55.4267 101.197 55.4267 100.483C55.4267 99.7799 55.1944 99.2473 54.7297 98.8846C54.2764 98.5106 53.6134 98.3236 52.7407 98.3236H49.5957V102.676ZM60.835 109.017V97.0316H62.059L69.573 106.96H69.165V97.0316H70.644V109.017H69.437L61.923 99.0886H62.314V109.017H60.835ZM73.3278 109.017L78.6318 97.0316H80.0088L85.3978 109.017H83.7658L82.2868 105.617L82.9668 106.025H75.6738L76.4218 105.617L74.9428 109.017H73.3278ZM79.2948 98.7996L76.6428 105.09L76.2348 104.733H82.4058L82.0828 105.09L79.3628 98.7996H79.2948ZM89.6641 109.017V98.3746H85.5161V97.0316H95.4271V98.3746H91.2621V109.017H89.6641ZM98.1173 109.017V97.0316H99.6983V109.017H98.1173ZM103.158 103.016C103.158 101.758 103.379 100.67 103.821 99.7516C104.263 98.8336 104.897 98.1253 105.725 97.6266C106.563 97.1279 107.561 96.8786 108.717 96.8786C109.861 96.8786 110.847 97.1279 111.675 97.6266C112.513 98.1253 113.159 98.8336 113.613 99.7516C114.066 100.67 114.293 101.752 114.293 102.999C114.293 104.257 114.066 105.35 113.613 106.28C113.159 107.198 112.513 107.912 111.675 108.422C110.847 108.92 109.861 109.17 108.717 109.17C107.561 109.17 106.569 108.92 105.742 108.422C104.914 107.912 104.274 107.198 103.821 106.28C103.379 105.35 103.158 104.262 103.158 103.016ZM104.824 103.016C104.824 104.512 105.152 105.679 105.81 106.518C106.467 107.356 107.436 107.776 108.717 107.776C109.952 107.776 110.91 107.362 111.59 106.535C112.281 105.696 112.627 104.523 112.627 103.016C112.627 101.508 112.287 100.341 111.607 99.5136C110.927 98.6863 109.963 98.2726 108.717 98.2726C107.436 98.2726 106.467 98.6863 105.81 99.5136C105.152 100.341 104.824 101.508 104.824 103.016ZM117.798 109.017V97.0316H119.022L126.536 106.96H126.128V97.0316H127.607V109.017H126.4L118.886 99.0886H119.277V109.017H117.798ZM130.291 109.017L135.595 97.0316H136.972L142.361 109.017H140.729L139.25 105.617L139.93 106.025H132.637L133.385 105.617L131.906 109.017H130.291ZM136.258 98.7996L133.606 105.09L133.198 104.733H139.369L139.046 105.09L136.326 98.7996H136.258ZM145.066 109.017V97.0316H146.647V107.657H152.614V109.017H145.066ZM11.239 130.17C9.59567 130.17 8.37167 129.756 7.567 128.929C6.77367 128.09 6.377 126.86 6.377 125.24V118.032H7.975V125.189C7.975 126.379 8.23567 127.274 8.757 127.875C9.27833 128.475 10.1057 128.776 11.239 128.776C12.327 128.776 13.143 128.475 13.687 127.875C14.2423 127.274 14.52 126.379 14.52 125.189V118.032H16.084V125.24C16.084 126.86 15.676 128.09 14.86 128.929C14.044 129.756 12.837 130.17 11.239 130.17ZM19.9298 130.017V118.032H21.1538L28.6678 127.96H28.2598V118.032H29.7388V130.017H28.5318L21.0178 120.089H21.4088V130.017H19.9298ZM33.6466 130.017V118.032H35.2276V130.017H33.6466ZM42.92 130.017L37.667 118.032H39.384L43.957 128.708H43.379L47.969 118.032H49.618L44.331 130.017H42.92ZM52.0821 130.017V118.032H59.8341V119.324H53.6121V123.285H59.4431V124.577H53.6121V128.725H59.8341V130.017H52.0821ZM63.1095 130.017V118.032H68.0735C69.3541 118.032 70.3401 118.332 71.0315 118.933C71.7341 119.533 72.0855 120.372 72.0855 121.449C72.0855 122.163 71.9268 122.769 71.6095 123.268C71.2921 123.766 70.8445 124.146 70.2665 124.407C69.6998 124.667 69.0368 124.798 68.2775 124.798L68.5665 124.56H68.9745C69.4391 124.56 69.8528 124.679 70.2155 124.917C70.5781 125.143 70.8785 125.517 71.1165 126.039L72.8165 130.017H71.0655L69.4165 126.073C69.2238 125.585 68.9405 125.268 68.5665 125.121C68.2038 124.973 67.7448 124.9 67.1895 124.9H64.6905V130.017H63.1095ZM64.6905 123.676H67.8355C68.7081 123.676 69.3711 123.489 69.8245 123.115C70.2891 122.741 70.5215 122.197 70.5215 121.483C70.5215 120.78 70.2891 120.247 69.8245 119.885C69.3711 119.511 68.7081 119.324 67.8355 119.324H64.6905V123.676ZM79.8742 130.17C78.9108 130.17 78.0438 130.045 77.2732 129.796C76.5025 129.546 75.8338 129.195 75.2672 128.742L75.8112 127.484C76.2078 127.778 76.6102 128.028 77.0182 128.232C77.4262 128.424 77.8625 128.572 78.3272 128.674C78.8032 128.764 79.3188 128.81 79.8742 128.81C80.8602 128.81 81.5855 128.634 82.0502 128.283C82.5262 127.92 82.7642 127.444 82.7642 126.855C82.7642 126.345 82.5998 125.954 82.2712 125.682C81.9425 125.41 81.3702 125.194 80.5542 125.036L78.7352 124.662C77.6358 124.435 76.8142 124.067 76.2702 123.557C75.7375 123.035 75.4712 122.333 75.4712 121.449C75.4712 120.735 75.6582 120.111 76.0322 119.579C76.4175 119.035 76.9445 118.615 77.6132 118.321C78.2932 118.026 79.0865 117.879 79.9932 117.879C80.8318 117.879 81.6082 118.003 82.3222 118.253C83.0362 118.502 83.6368 118.87 84.1242 119.358L83.5802 120.565C83.0702 120.1 82.5205 119.766 81.9312 119.562C81.3532 119.346 80.6958 119.239 79.9592 119.239C79.0638 119.239 78.3555 119.431 77.8342 119.817C77.3128 120.202 77.0522 120.723 77.0522 121.381C77.0522 121.902 77.2165 122.316 77.5452 122.622C77.8738 122.916 78.4178 123.143 79.1772 123.302L80.9962 123.659C82.1522 123.885 82.9965 124.242 83.5292 124.73C84.0732 125.217 84.3452 125.891 84.3452 126.753C84.3452 127.433 84.1638 128.033 83.8012 128.555C83.4385 129.065 82.9228 129.461 82.2542 129.745C81.5855 130.028 80.7922 130.17 79.8742 130.17ZM87.588 130.017V118.032H89.169V130.017H87.588ZM95.9434 130.017V119.375H91.7954V118.032H101.706V119.375H97.5414V130.017H95.9434ZM107.504 130.017V124.407L107.844 125.444L102.846 118.032H104.682L108.524 123.88H108.133L111.975 118.032H113.76L108.762 125.444L109.085 124.407V130.017H107.504Z" fill="white"/>
</svg>
