<svg width="18" height="25" viewBox="0 0 18 25" fill="none" xmlns="http://www.w3.org/2000/svg">
<path d="M10.3238 7.30943C10.1887 8.23481 9.68517 9.07399 8.98798 9.68391C8.29078 10.2934 7.39906 10.6666 6.48066 10.674H6.47377H6.46688C4.63007 10.6666 3.3536 9.16059 3.63076 7.30943C3.76503 6.38404 4.26168 5.54484 4.95887 4.93495C5.65607 4.32542 6.54778 3.95261 7.46533 3.94521H7.47308H7.47997C7.55227 3.94521 7.62371 3.94521 7.69601 3.95261L7.43779 5.71683C7.36548 5.70277 7.29319 5.69575 7.21487 5.69575C6.33261 5.70277 5.50974 6.4203 5.37375 7.30943C5.24464 8.19191 5.85662 8.91646 6.73887 8.91646C7.35085 8.91646 7.92755 8.56472 8.27098 8.05691H7.09178L7.30696 6.60966H10.3505L10.3583 6.84304C10.3634 6.99357 10.3471 7.15187 10.3238 7.30943ZM14.1007 10.428L15.5821 0.5H2.95078L0.732666 15.3915H3.90017L3.44742 18.4632H6.63128L3.12723 20.6361L2.55656 24.5H15.1878L17.2674 10.428H14.1007Z" fill="black"/>
</svg>
