<svg width="26" height="27" viewBox="0 0 26 27" fill="none" xmlns="http://www.w3.org/2000/svg">
<g id="light_mode">
<mask id="mask0_5284_4260" style="mask-type:alpha" maskUnits="userSpaceOnUse" x="0" y="0" width="26" height="27">
<rect id="Bounding box" y="0.5" width="26" height="26" fill="#D9D9D9"/>
</mask>
<g mask="url(#mask0_5284_4260)">
<path id="light_mode_2" d="M13 15.6818C13.6061 15.6818 14.1212 15.4697 14.5455 15.0455C14.9697 14.6212 15.1818 14.1061 15.1818 13.5C15.1818 12.8939 14.9697 12.3788 14.5455 11.9545C14.1212 11.5303 13.6061 11.3182 13 11.3182C12.3939 11.3182 11.8788 11.5303 11.4545 11.9545C11.0303 12.3788 10.8182 12.8939 10.8182 13.5C10.8182 14.1061 11.0303 14.6212 11.4545 15.0455C11.8788 15.4697 12.3939 15.6818 13 15.6818ZM13 17.1364C11.9939 17.1364 11.1364 16.7818 10.4273 16.0727C9.71818 15.3636 9.36364 14.5061 9.36364 13.5C9.36364 12.4939 9.71818 11.6364 10.4273 10.9273C11.1364 10.2182 11.9939 9.86364 13 9.86364C14.0061 9.86364 14.8636 10.2182 15.5727 10.9273C16.2818 11.6364 16.6364 12.4939 16.6364 13.5C16.6364 14.5061 16.2818 15.3636 15.5727 16.0727C14.8636 16.7818 14.0061 17.1364 13 17.1364ZM7.90909 14.2273H5V12.7727H7.90909V14.2273ZM21 14.2273H18.0909V12.7727H21V14.2273ZM12.2727 8.40909V5.5H13.7273V8.40909H12.2727ZM12.2727 21.5V18.5909H13.7273V21.5H12.2727ZM8.92727 10.4091L7.09091 8.64545L8.12727 7.57273L9.87273 9.39091L8.92727 10.4091ZM17.8727 19.4273L16.1091 17.5909L17.0727 16.5909L18.9091 18.3545L17.8727 19.4273ZM16.0909 9.42727L17.8545 7.59091L18.9273 8.62727L17.1091 10.3727L16.0909 9.42727ZM7.07273 18.3727L8.90909 16.6091L9.90909 17.5727L8.14545 19.4091L7.07273 18.3727Z" fill="black"/>
</g>
</g>
</svg>
