<svg width="86" height="76" viewBox="0 0 86 76" fill="none" xmlns="http://www.w3.org/2000/svg">
<path d="M3.87 34V2.275H16.785C20.205 2.275 22.83 2.995 24.66 4.435C26.49 5.875 27.405 7.9 27.405 10.51C27.405 12.49 26.805 14.14 25.605 15.46C24.435 16.78 22.83 17.665 20.79 18.115V17.44C23.13 17.71 24.945 18.52 26.235 19.87C27.555 21.22 28.215 23.005 28.215 25.225C28.215 28.045 27.27 30.22 25.38 31.75C23.49 33.25 20.82 34 17.37 34H3.87ZM7.92 30.67H16.965C19.185 30.67 20.925 30.25 22.185 29.41C23.475 28.54 24.12 27.115 24.12 25.135C24.12 23.125 23.475 21.7 22.185 20.86C20.925 20.02 19.185 19.6 16.965 19.6H7.92V30.67ZM7.92 16.27H16.2C18.57 16.27 20.34 15.82 21.51 14.92C22.68 13.99 23.265 12.655 23.265 10.915C23.265 9.175 22.68 7.855 21.51 6.955C20.34 6.025 18.57 5.56 16.2 5.56H7.92V16.27ZM36.5878 34V2.275H40.7728V34H36.5878ZM63.098 34.405C58.748 34.405 55.508 33.31 53.378 31.12C51.278 28.9 50.228 25.645 50.228 21.355V2.275H54.458V21.22C54.458 24.37 55.148 26.74 56.528 28.33C57.908 29.92 60.098 30.715 63.098 30.715C65.978 30.715 68.138 29.92 69.578 28.33C71.048 26.74 71.783 24.37 71.783 21.22V2.275H75.923V21.355C75.923 25.645 74.843 28.9 72.683 31.12C70.523 33.31 67.328 34.405 63.098 34.405Z" fill="black"/>
<line x1="4" y1="42" x2="81" y2="42" stroke="#FE7A36" stroke-width="2"/>
<path d="M4.688 54V48.36H6.984C7.592 48.36 8.05867 48.488 8.384 48.744C8.70933 49 8.872 49.36 8.872 49.824C8.872 50.176 8.76533 50.4693 8.552 50.704C8.344 50.9387 8.05867 51.096 7.696 51.176V51.056C8.112 51.104 8.43467 51.248 8.664 51.488C8.89867 51.728 9.016 52.0453 9.016 52.44C9.016 52.9413 8.848 53.328 8.512 53.6C8.176 53.8667 7.70133 54 7.088 54H4.688ZM5.408 53.408H7.016C7.41067 53.408 7.72 53.3333 7.944 53.184C8.17333 53.0293 8.288 52.776 8.288 52.424C8.288 52.0667 8.17333 51.8133 7.944 51.664C7.72 51.5147 7.41067 51.44 7.016 51.44H5.408V53.408ZM5.408 50.848H6.88C7.30133 50.848 7.616 50.768 7.824 50.608C8.032 50.4427 8.136 50.2053 8.136 49.896C8.136 49.5867 8.032 49.352 7.824 49.192C7.616 49.0267 7.30133 48.944 6.88 48.944H5.408V50.848ZM11.1489 54V48.36H11.8929V54H11.1489ZM14.2583 54V48.36H15.0023V53.36H17.8103V54H14.2583ZM19.6489 54V48.36H20.3929V54H19.6489ZM22.7583 54V48.36H23.4143L25.6383 53.368H25.3983L27.6223 48.36H28.2703V54H27.5903V49.352H27.8383L25.7503 54H25.2783L23.1903 49.352H23.4383V54H22.7583ZM30.6489 54V48.36H31.3929V50.912H31.4089L34.0569 48.36H34.9929L31.9209 51.28L31.9289 50.92L35.2089 54H34.2409L31.4089 51.352H31.3929V54H30.6489ZM35.9792 54L38.4752 48.36H39.1232L41.6592 54H40.8912L40.1952 52.4L40.5152 52.592H37.0832L37.4352 52.4L36.7392 54H35.9792ZM38.7872 49.192L37.5392 52.152L37.3472 51.984H40.2512L40.0992 52.152L38.8192 49.192H38.7872ZM43.4614 54V48.36H44.0374L47.5734 53.032H47.3814V48.36H48.0774V54H47.5094L43.9734 49.328H44.1574V54H43.4614ZM49.8698 54L52.3658 48.36H53.0138L55.5498 54H54.7818L54.0858 52.4L54.4058 52.592H50.9738L51.3258 52.4L50.6298 54H49.8698ZM52.6778 49.192L51.4298 52.152L51.2378 51.984H54.1418L53.9898 52.152L52.7098 49.192H52.6778ZM4.688 64V58.36H5.432V64H4.688ZM7.79738 64V58.36H8.37338L11.9094 63.032H11.7174V58.36H12.4134V64H11.8454L8.30938 59.328H8.49338V64H7.79738ZM16.1338 64V58.992H14.1818V58.36H18.8458V58.992H16.8858V64H16.1338ZM20.6411 64V58.36H24.2891V58.968H21.3611V60.832H24.1051V61.44H21.3611V63.392H24.2891V64H20.6411ZM26.3599 64V58.36H28.6959C29.2985 58.36 29.7625 58.5013 30.0879 58.784C30.4185 59.0667 30.5839 59.4613 30.5839 59.968C30.5839 60.304 30.5092 60.5893 30.3599 60.824C30.2105 61.0587 29.9999 61.2373 29.7279 61.36C29.4612 61.4827 29.1492 61.544 28.7919 61.544L28.9279 61.432H29.1199C29.3385 61.432 29.5332 61.488 29.7039 61.6C29.8745 61.7067 30.0159 61.8827 30.1279 62.128L30.9279 64H30.1039L29.3279 62.144C29.2372 61.9147 29.1039 61.7653 28.9279 61.696C28.7572 61.6267 28.5412 61.592 28.2799 61.592H27.1039V64H26.3599ZM27.1039 61.016H28.5839C28.9945 61.016 29.3065 60.928 29.5199 60.752C29.7385 60.576 29.8479 60.32 29.8479 59.984C29.8479 59.6533 29.7385 59.4027 29.5199 59.232C29.3065 59.056 28.9945 58.968 28.5839 58.968H27.1039V61.016ZM32.9224 64V58.36H33.4984L37.0344 63.032H36.8424V58.36H37.5384V64H36.9704L33.4344 59.328H33.6184V64H32.9224ZM39.3308 64L41.8268 58.36H42.4748L45.0108 64H44.2428L43.5468 62.4L43.8668 62.592H40.4348L40.7868 62.4L40.0908 64H39.3308ZM42.1388 59.192L40.8908 62.152L40.6988 61.984H43.6028L43.4508 62.152L42.1708 59.192H42.1388ZM47.5478 64V58.992H45.5958V58.36H50.2598V58.992H48.2998V64H47.5478ZM52.0552 64V58.36H52.7992V64H52.0552ZM54.9566 61.176C54.9566 60.584 55.0606 60.072 55.2686 59.64C55.4766 59.208 55.7752 58.8747 56.1646 58.64C56.5592 58.4053 57.0286 58.288 57.5726 58.288C58.1112 58.288 58.5752 58.4053 58.9646 58.64C59.3592 58.8747 59.6632 59.208 59.8766 59.64C60.0899 60.072 60.1966 60.5813 60.1966 61.168C60.1966 61.76 60.0899 62.2747 59.8766 62.712C59.6632 63.144 59.3592 63.48 58.9646 63.72C58.5752 63.9547 58.1112 64.072 57.5726 64.072C57.0286 64.072 56.5619 63.9547 56.1726 63.72C55.7832 63.48 55.4819 63.144 55.2686 62.712C55.0606 62.2747 54.9566 61.7627 54.9566 61.176ZM55.7406 61.176C55.7406 61.88 55.8952 62.4293 56.2046 62.824C56.5139 63.2187 56.9699 63.416 57.5726 63.416C58.1539 63.416 58.6046 63.2213 58.9246 62.832C59.2499 62.4373 59.4126 61.8853 59.4126 61.176C59.4126 60.4667 59.2526 59.9173 58.9326 59.528C58.6126 59.1387 58.1592 58.944 57.5726 58.944C56.9699 58.944 56.5139 59.1387 56.2046 59.528C55.8952 59.9173 55.7406 60.4667 55.7406 61.176ZM62.3755 64V58.36H62.9515L66.4875 63.032H66.2955V58.36H66.9915V64H66.4235L62.8875 59.328H63.0715V64H62.3755ZM68.7839 64L71.2799 58.36H71.9279L74.4639 64H73.6959L72.9999 62.4L73.3199 62.592H69.8879L70.2399 62.4L69.5439 64H68.7839ZM71.5919 59.192L70.3439 62.152L70.1519 61.984H73.0559L72.9039 62.152L71.6239 59.192H71.5919ZM76.2661 64V58.36H77.0101V63.36H79.8181V64H76.2661ZM6.936 74.072C6.16267 74.072 5.58667 73.8773 5.208 73.488C4.83467 73.0933 4.648 72.5147 4.648 71.752V68.36H5.4V71.728C5.4 72.288 5.52267 72.7093 5.768 72.992C6.01333 73.2747 6.40267 73.416 6.936 73.416C7.448 73.416 7.832 73.2747 8.088 72.992C8.34933 72.7093 8.48 72.288 8.48 71.728V68.36H9.216V71.752C9.216 72.5147 9.024 73.0933 8.64 73.488C8.256 73.8773 7.688 74.072 6.936 74.072ZM11.5552 74V68.36H12.1312L15.6672 73.032H15.4752V68.36H16.1712V74H15.6032L12.0672 69.328H12.2512V74H11.5552ZM18.5396 74V68.36H19.2836V74H18.5396ZM23.4329 74L20.9609 68.36H21.7689L23.9209 73.384H23.6489L25.8089 68.36H26.5849L24.0969 74H23.4329ZM28.2739 74V68.36H31.9219V68.968H28.9939V70.832H31.7379V71.44H28.9939V73.392H31.9219V74H28.2739ZM33.9927 74V68.36H36.3287C36.9314 68.36 37.3954 68.5013 37.7207 68.784C38.0514 69.0667 38.2167 69.4613 38.2167 69.968C38.2167 70.304 38.142 70.5893 37.9927 70.824C37.8434 71.0587 37.6327 71.2373 37.3607 71.36C37.094 71.4827 36.782 71.544 36.4247 71.544L36.5607 71.432H36.7527C36.9714 71.432 37.166 71.488 37.3367 71.6C37.5074 71.7067 37.6487 71.8827 37.7607 72.128L38.5607 74H37.7367L36.9607 72.144C36.87 71.9147 36.7367 71.7653 36.5607 71.696C36.39 71.6267 36.174 71.592 35.9127 71.592H34.7367V74H33.9927ZM34.7367 71.016H36.2167C36.6274 71.016 36.9394 70.928 37.1527 70.752C37.3714 70.576 37.4807 70.32 37.4807 69.984C37.4807 69.6533 37.3714 69.4027 37.1527 69.232C36.9394 69.056 36.6274 68.968 36.2167 68.968H34.7367V71.016ZM42.4114 74.072C41.958 74.072 41.55 74.0133 41.1874 73.896C40.8247 73.7787 40.51 73.6133 40.2434 73.4L40.4994 72.808C40.686 72.9467 40.8754 73.064 41.0674 73.16C41.2594 73.2507 41.4647 73.32 41.6834 73.368C41.9074 73.4107 42.15 73.432 42.4114 73.432C42.8754 73.432 43.2167 73.3493 43.4354 73.184C43.6594 73.0133 43.7714 72.7893 43.7714 72.512C43.7714 72.272 43.694 72.088 43.5394 71.96C43.3847 71.832 43.1154 71.7307 42.7314 71.656L41.8754 71.48C41.358 71.3733 40.9714 71.2 40.7154 70.96C40.4647 70.7147 40.3394 70.384 40.3394 69.968C40.3394 69.632 40.4274 69.3387 40.6034 69.088C40.7847 68.832 41.0327 68.6347 41.3474 68.496C41.6674 68.3573 42.0407 68.288 42.4674 68.288C42.862 68.288 43.2274 68.3467 43.5634 68.464C43.8994 68.5813 44.182 68.7547 44.4114 68.984L44.1554 69.552C43.9154 69.3333 43.6567 69.176 43.3794 69.08C43.1074 68.9787 42.798 68.928 42.4514 68.928C42.03 68.928 41.6967 69.0187 41.4514 69.2C41.206 69.3813 41.0834 69.6267 41.0834 69.936C41.0834 70.1813 41.1607 70.376 41.3154 70.52C41.47 70.6587 41.726 70.7653 42.0834 70.84L42.9394 71.008C43.4834 71.1147 43.8807 71.2827 44.1314 71.512C44.3874 71.7413 44.5154 72.0587 44.5154 72.464C44.5154 72.784 44.43 73.0667 44.2594 73.312C44.0887 73.552 43.846 73.7387 43.5314 73.872C43.2167 74.0053 42.8434 74.072 42.4114 74.072ZM46.5708 74V68.36H47.3148V74H46.5708ZM51.0322 74V68.992H49.0802V68.36H53.7442V68.992H51.7842V74H51.0322ZM57.0017 74V71.36L57.1617 71.848L54.8097 68.36H55.6737L57.4817 71.112H57.2977L59.1057 68.36H59.9457L57.5937 71.848L57.7457 71.36V74H57.0017Z" fill="black"/>
<line x1="85" x2="85" y2="76" stroke="#FE7A36" stroke-width="2"/>
</svg>
