<svg width="18" height="22" viewBox="0 0 18 22" fill="none" xmlns="http://www.w3.org/2000/svg">
<g id="Mark">
<path id="Vector" d="M17.233 9.74649C17.233 16.2011 10.6219 20.1776 9.24808 20.935C9.17197 20.977 9.08647 20.999 8.99955 20.999C8.91263 20.999 8.82713 20.977 8.75102 20.935C7.37612 20.1776 0.767151 16.2011 0.767151 9.74649C0.767151 4.60092 3.85449 0.999023 9.00006 0.999023C14.1456 0.999023 17.233 4.60092 17.233 9.74649Z" stroke="white" stroke-linecap="round" stroke-linejoin="round"/>
<path id="Vector_2" d="M4.88348 9.23169C4.88348 10.3234 5.31718 11.3705 6.08917 12.1425C6.86115 12.9144 7.90819 13.3481 8.99994 13.3481C10.0917 13.3481 11.1387 12.9144 11.9107 12.1425C12.6827 11.3705 13.1164 10.3234 13.1164 9.23169C13.1164 8.13994 12.6827 7.0929 11.9107 6.32092C11.1387 5.54893 10.0917 5.11523 8.99994 5.11523C7.90819 5.11523 6.86115 5.54893 6.08917 6.32092C5.31718 7.0929 4.88348 8.13994 4.88348 9.23169Z" stroke="white" stroke-linecap="round" stroke-linejoin="round"/>
</g>
</svg>
