<svg width="22" height="17" viewBox="0 0 22 17" fill="none" xmlns="http://www.w3.org/2000/svg">
<g id="Email">
<path id="Vector" d="M21 3.13818V13.1382C21 13.8012 20.7366 14.4371 20.2678 14.906C19.7989 15.3748 19.163 15.6382 18.5 15.6382H3.5C2.83696 15.6382 2.20107 15.3748 1.73223 14.906C1.26339 14.4371 1 13.8012 1 13.1382V3.13818" stroke="white" stroke-linecap="round" stroke-linejoin="round"/>
<path id="Vector_2" d="M20.9999 3.13916C20.9999 2.47612 20.7365 1.84023 20.2676 1.37139C19.7988 0.902552 19.1629 0.63916 18.4999 0.63916H3.49988C2.83684 0.63916 2.20095 0.902552 1.73211 1.37139C1.26327 1.84023 0.999878 2.47612 0.999878 3.13916L9.67488 8.55583C10.0722 8.80416 10.5313 8.93583 10.9999 8.93583C11.4684 8.93583 11.9275 8.80416 12.3249 8.55583L20.9999 3.13916Z" stroke="white" stroke-linecap="round" stroke-linejoin="round"/>
</g>
</svg>
