<svg width="22" height="22" viewBox="0 0 22 22" fill="none" xmlns="http://www.w3.org/2000/svg">
<g id="Phone">
<path id="Vector" d="M13.7018 19.8633L13.7127 19.871C14.6572 20.4723 15.7785 20.7334 16.8915 20.6112C18.0044 20.489 19.0424 19.9907 19.8338 19.1987L20.5213 18.5112C20.6737 18.3589 20.7946 18.1781 20.877 17.9791C20.9595 17.7802 21.0019 17.5669 21.0019 17.3515C21.0019 17.1361 20.9595 16.9228 20.877 16.7238C20.7946 16.5248 20.6737 16.344 20.5213 16.1917L17.6215 13.294C17.4692 13.1417 17.2884 13.0208 17.0894 12.9384C16.8904 12.8559 16.6771 12.8134 16.4617 12.8134C16.2463 12.8134 16.033 12.8559 15.8341 12.9384C15.6351 13.0208 15.4543 13.1417 15.302 13.294C14.9945 13.6014 14.5776 13.7741 14.1428 13.7741C13.7081 13.7741 13.2911 13.6014 12.9836 13.294L8.34689 8.6562C8.03952 8.34873 7.86684 7.93177 7.86684 7.49702C7.86684 7.06226 8.03952 6.6453 8.34689 6.33783C8.49925 6.18557 8.62012 6.00477 8.70258 5.80578C8.78504 5.60679 8.82748 5.3935 8.82748 5.1781C8.82748 4.9627 8.78504 4.74941 8.70258 4.55041C8.62012 4.35142 8.49925 4.17063 8.34689 4.01836L5.44811 1.12067C5.14064 0.813299 4.72368 0.640625 4.28892 0.640625C3.85416 0.640625 3.4372 0.813299 3.12973 1.12067L2.44111 1.80821C1.64929 2.59977 1.15121 3.63779 1.02919 4.75075C0.90716 5.8637 1.16848 6.98498 1.76997 7.92932L1.77653 7.94025C4.95315 12.6402 9.00128 16.6875 13.7018 19.8633V19.8633Z" stroke="white" stroke-linecap="round" stroke-linejoin="round"/>
</g>
</svg>
