<svg width="40" height="40" viewBox="0 0 40 40" fill="none" xmlns="http://www.w3.org/2000/svg">
<rect x="40" width="40" height="40" rx="20" transform="rotate(90 40 0)" fill="white"/>
<g clip-path="url(#clip0_3338_19361)">
<path d="M5.64023 19.8205C5.63953 22.3411 6.30328 24.8022 7.56539 26.9715L5.51953 34.3834L13.1639 32.3946C15.2782 33.5366 17.6472 34.1351 20.0545 34.1353H20.0609C28.0079 34.1353 34.477 27.7186 34.4804 19.8318C34.482 16.01 32.9834 12.4163 30.2606 9.71258C27.5384 7.0091 23.9179 5.51944 20.0603 5.5177C12.1123 5.5177 5.64363 11.934 5.64035 19.8205" fill="url(#paint0_linear_3338_19361)"/>
<path d="M5.12539 19.8158C5.12457 22.4271 5.81211 24.9763 7.11922 27.2233L5 34.9008L12.9185 32.8407C15.1003 34.021 17.5568 34.6434 20.0564 34.6443H20.0628C28.295 34.6443 34.9965 27.9969 35 19.8277C35.0014 15.8686 33.4489 12.1457 30.6289 9.34512C27.8086 6.54488 24.0586 5.00163 20.0628 5C11.8292 5 5.12867 11.6465 5.12539 19.8158ZM9.84113 26.8363L9.54547 26.3706C8.30258 24.4097 7.64656 22.1436 7.6475 19.8167C7.65008 13.0266 13.2193 7.50233 20.0675 7.50233C23.3839 7.50372 26.5006 8.78651 28.8448 11.114C31.1889 13.4416 32.4788 16.5358 32.478 19.8267C32.475 26.6169 26.9056 32.1419 20.0628 32.1419H20.0579C17.8298 32.1407 15.6446 31.547 13.7389 30.425L13.2854 30.1581L8.58641 31.3806L9.84113 26.8363Z" fill="url(#paint1_linear_3338_19361)"/>
<path d="M16.3294 13.6219C16.0498 13.0053 15.7556 12.9928 15.4897 12.982C15.2719 12.9727 15.023 12.9734 14.7743 12.9734C14.5254 12.9734 14.121 13.0663 13.7792 13.4367C13.437 13.8074 12.4728 14.7032 12.4728 16.5251C12.4728 18.3471 13.8102 20.1081 13.9967 20.3554C14.1834 20.6022 16.5787 24.4608 20.3723 25.9453C23.5251 27.1789 24.1667 26.9335 24.8509 26.8717C25.5353 26.81 27.0592 25.9761 27.3701 25.1113C27.6813 24.2467 27.6813 23.5055 27.588 23.3506C27.4947 23.1963 27.2458 23.1036 26.8725 22.9185C26.4993 22.7334 24.6643 21.8374 24.3222 21.7137C23.98 21.5903 23.7312 21.5286 23.4823 21.8994C23.2334 22.2697 22.5187 23.1036 22.3008 23.3506C22.0832 23.5982 21.8654 23.629 21.4922 23.4437C21.1188 23.2579 19.9168 22.8674 18.4907 21.6058C17.3812 20.6242 16.6321 19.412 16.4144 19.0412C16.1966 18.671 16.3911 18.4703 16.5782 18.2857C16.7459 18.1198 16.9516 17.8533 17.1384 17.6371C17.3245 17.4208 17.3866 17.2665 17.511 17.0196C17.6356 16.7724 17.5732 16.5561 17.4801 16.3708C17.3866 16.1856 16.6613 14.3541 16.3294 13.6219Z" fill="white"/>
</g>
<defs>
<linearGradient id="paint0_linear_3338_19361" x1="1453.56" y1="2892.09" x2="1453.56" y2="5.5177" gradientUnits="userSpaceOnUse">
<stop stop-color="#1FAF38"/>
<stop offset="1" stop-color="#60D669"/>
</linearGradient>
<linearGradient id="paint1_linear_3338_19361" x1="1505" y1="2995.08" x2="1505" y2="5" gradientUnits="userSpaceOnUse">
<stop stop-color="#F9F9F9"/>
<stop offset="1" stop-color="white"/>
</linearGradient>
<clipPath id="clip0_3338_19361">
<rect width="30" height="30" fill="white" transform="translate(5 5)"/>
</clipPath>
</defs>
</svg>
