<svg width="40" height="40" viewBox="0 0 40 40" fill="none" xmlns="http://www.w3.org/2000/svg">
<rect x="40" width="40" height="40" rx="20" transform="rotate(90 40 0)" fill="white"/>
<path d="M20 5C28.2842 5 35 11.7157 35 20C35 28.2842 28.2842 35 20 35C17.2492 35 14.6713 34.2596 12.4548 32.967L5.00627 35L7.03421 27.5472C5.74094 25.3304 5 22.7518 5 20C5 11.7157 11.7157 5 20 5ZM14.587 12.9625C14.3929 12.9761 14.2026 13.0235 14.0294 13.1122C13.8994 13.1787 13.7788 13.2748 13.5892 13.4538C13.4101 13.6228 13.3064 13.7705 13.1971 13.9128C12.6425 14.6348 12.3445 15.5211 12.35 16.4315C12.353 17.1674 12.5442 17.8826 12.8461 18.5504C13.4583 19.9046 14.4679 21.3362 15.8014 22.6639C16.1218 22.9827 16.4356 23.3051 16.774 23.603C18.4292 25.0604 20.4017 26.1113 22.5346 26.6723C22.5346 26.6723 23.3746 26.8013 23.3869 26.8021C23.6651 26.8171 23.9429 26.7969 24.2215 26.7827C24.6584 26.7602 25.085 26.642 25.4711 26.4363C25.7194 26.3042 25.8368 26.2385 26.0452 26.1071C26.0452 26.1071 26.1091 26.0639 26.2324 25.9721C26.4349 25.8212 26.56 25.715 26.7284 25.5401C26.8526 25.4111 26.9594 25.2587 27.0419 25.087C27.1592 24.8422 27.2773 24.3749 27.3242 23.9869C27.3601 23.6905 27.3493 23.5285 27.3454 23.4281C27.3389 23.2667 27.2056 23.1007 27.0595 23.0301L26.1872 22.638C26.1872 22.638 24.883 22.0704 24.0853 21.7066C24.0022 21.6686 23.9113 21.6511 23.8199 21.6455C23.6198 21.6332 23.3956 21.6854 23.2529 21.8357C23.2454 21.8327 23.1461 21.9185 22.0609 23.2333C22.001 23.3048 21.8608 23.4603 21.6182 23.4458C21.5816 23.4433 21.5452 23.438 21.5096 23.4287C21.4114 23.4027 21.3157 23.3686 21.2221 23.329C21.0365 23.2502 20.9714 23.2203 20.8447 23.1657C19.9787 22.7875 19.184 22.2813 18.4816 21.662C18.2932 21.4961 18.118 21.3174 17.9374 21.1424C17.3071 20.5314 16.7911 19.8817 16.4072 19.2407C16.3862 19.2057 16.3539 19.1552 16.3192 19.0987C16.2563 18.9965 16.1871 18.875 16.1654 18.7916C16.1096 18.571 16.2575 18.3936 16.2575 18.3936C16.2575 18.3936 16.6226 17.9945 16.7923 17.7775C16.9555 17.5685 17.0963 17.3642 17.186 17.2186C17.3627 16.9345 17.4187 16.6409 17.3258 16.4144C16.905 15.3885 16.4708 14.368 16.0233 13.3534C15.935 13.1532 15.6723 13.0077 15.4334 12.9801C15.3525 12.9708 15.2717 12.9614 15.1904 12.956C14.9893 12.9462 14.7878 12.9484 14.587 12.9625Z" fill="#233974"/>
</svg>
