<?xml version="1.0" encoding="UTF-8"?>
<svg id="_Слой_2" data-name="Слой 2" xmlns="http://www.w3.org/2000/svg" viewBox="0 0 100 100">
  <defs>
    <style>
      .cls-1 {
        fill: #fff;
      }

      .cls-2 {
        isolation: isolate;
      }

      .cls-3 {
        fill: #233974;
      }

      .cls-4 {
        fill: none;
        stroke: #fe7a36;
        stroke-width: 2px;
      }
    </style>
  </defs>
  <g id="_Линия" data-name="Линия" class="cls-2">
    <rect class="cls-3" width="100" height="100" rx="18.98" ry="18.98"/>
    <path class="cls-1" d="m9.49,46V14.28h12.91c3.42,0,6.05.72,7.88,2.16s2.75,3.47,2.75,6.08c0,1.98-.6,3.63-1.8,4.95-1.17,1.32-2.77,2.21-4.81,2.65v-.67c2.34.27,4.15,1.08,5.44,2.43,1.32,1.35,1.98,3.13,1.98,5.35,0,2.82-.94,4.99-2.84,6.52-1.89,1.5-4.56,2.25-8.01,2.25h-13.5Zm4.05-3.33h9.05c2.22,0,3.96-.42,5.22-1.26,1.29-.87,1.94-2.3,1.94-4.27s-.65-3.43-1.94-4.27c-1.26-.84-3-1.26-5.22-1.26h-9.05v11.07Zm0-14.4h8.28c2.37,0,4.14-.45,5.31-1.35,1.17-.93,1.75-2.27,1.75-4.01s-.58-3.06-1.75-3.96c-1.17-.93-2.94-1.39-5.31-1.39h-8.28v10.71Zm28.67,17.73V14.28h4.19v31.72h-4.19Zm26.51.4c-4.35,0-7.59-1.09-9.72-3.28-2.1-2.22-3.15-5.48-3.15-9.77V14.28h4.23v18.94c0,3.15.69,5.52,2.07,7.11s3.57,2.39,6.57,2.39,5.04-.8,6.48-2.39c1.47-1.59,2.2-3.96,2.2-7.11V14.28h4.14v19.08c0,4.29-1.08,7.55-3.24,9.77-2.16,2.19-5.35,3.28-9.58,3.28Z"/>
    <line class="cls-4" x1="9.62" y1="54" x2="86.62" y2="54"/>
    <path class="cls-1" d="m10.31,66v-5.64h2.3c.61,0,1.07.13,1.4.38s.49.62.49,1.08c0,.35-.11.65-.32.88-.21.23-.49.39-.86.47v-.12c.42.05.74.19.97.43.23.24.35.56.35.95,0,.5-.17.89-.5,1.16-.34.27-.81.4-1.42.4h-2.4Zm.72-.59h1.61c.39,0,.7-.07.93-.22.23-.15.34-.41.34-.76s-.11-.61-.34-.76c-.22-.15-.53-.22-.93-.22h-1.61v1.97Zm0-2.56h1.47c.42,0,.74-.08.94-.24.21-.17.31-.4.31-.71s-.1-.54-.31-.7c-.21-.17-.52-.25-.94-.25h-1.47v1.9Zm5.74,3.15v-5.64h.74v5.64h-.74Zm3.11,0v-5.64h.74v5h2.81v.64h-3.55Zm5.39,0v-5.64h.74v5.64h-.74Zm3.11,0v-5.64h.66l2.22,5.01h-.24l2.22-5.01h.65v5.64h-.68v-4.65h.25l-2.09,4.65h-.47l-2.09-4.65h.25v4.65h-.68Zm7.89,0v-5.64h.74v2.55h.02l2.65-2.55h.94l-3.07,2.92v-.36s3.29,3.08,3.29,3.08h-.97l-2.83-2.65h-.02v2.65h-.74Zm5.33,0l2.5-5.64h.65l2.54,5.64h-.77l-.7-1.6.32.19h-3.43l.35-.19-.7,1.6h-.76Zm2.81-4.81l-1.25,2.96-.19-.17h2.9l-.15.17-1.28-2.96h-.03Zm4.67,4.81v-5.64h.58l3.54,4.67h-.19v-4.67h.7v5.64h-.57l-3.54-4.67h.18v4.67h-.7Zm6.41,0l2.5-5.64h.65l2.54,5.64h-.77l-.7-1.6.32.19h-3.43l.35-.19-.7,1.6h-.76Zm2.81-4.81l-1.25,2.96-.19-.17h2.9l-.15.17-1.28-2.96h-.03Zm-47.99,14.81v-5.64h.74v5.64h-.74Zm3.11,0v-5.64h.58l3.54,4.67h-.19v-4.67h.7v5.64h-.57l-3.54-4.67h.18v4.67h-.7Zm8.34,0v-5.01h-1.95v-.63h4.66v.63h-1.96v5.01h-.75Zm4.51,0v-5.64h3.65v.61h-2.93v1.86h2.74v.61h-2.74v1.95h2.93v.61h-3.65Zm5.72,0v-5.64h2.34c.6,0,1.07.14,1.39.42.33.28.5.68.5,1.18,0,.34-.07.62-.22.86-.15.23-.36.41-.63.54-.27.12-.58.18-.94.18l.14-.11h.19c.22,0,.41.06.58.17.17.11.31.28.42.53l.8,1.87h-.82l-.78-1.86c-.09-.23-.22-.38-.4-.45-.17-.07-.39-.1-.65-.1h-1.18v2.41h-.74Zm.74-2.98h1.48c.41,0,.72-.09.94-.26.22-.18.33-.43.33-.77s-.11-.58-.33-.75c-.21-.18-.53-.26-.94-.26h-1.48v2.05Zm5.82,2.98v-5.64h.58l3.54,4.67h-.19v-4.67h.7v5.64h-.57l-3.54-4.67h.18v4.67h-.7Zm6.41,0l2.5-5.64h.65l2.54,5.64h-.77l-.7-1.6.32.19h-3.43l.35-.19-.7,1.6h-.76Zm2.81-4.81l-1.25,2.96-.19-.17h2.9l-.15.17-1.28-2.96h-.03Zm5.41,4.81v-5.01h-1.95v-.63h4.66v.63h-1.96v5.01h-.75Zm4.51,0v-5.64h.74v5.64h-.74Zm2.9-2.82c0-.59.1-1.1.31-1.54s.51-.77.9-1c.39-.23.86-.35,1.41-.35s1,.12,1.39.35c.39.23.7.57.91,1,.21.43.32.94.32,1.53s-.11,1.11-.32,1.54c-.21.43-.52.77-.91,1.01-.39.23-.85.35-1.39.35s-1.01-.12-1.4-.35c-.39-.24-.69-.58-.9-1.01-.21-.44-.31-.95-.31-1.54Zm.78,0c0,.7.15,1.25.46,1.65.31.39.77.59,1.37.59s1.03-.19,1.35-.58c.33-.39.49-.95.49-1.66s-.16-1.26-.48-1.65c-.32-.39-.77-.58-1.36-.58s-1.06.19-1.37.58c-.31.39-.46.94-.46,1.65Zm6.63,2.82v-5.64h.58l3.54,4.67h-.19v-4.67h.7v5.64h-.57l-3.54-4.67h.18v4.67h-.7Zm6.41,0l2.5-5.64h.65l2.54,5.64h-.77l-.7-1.6.32.19h-3.43l.35-.19-.7,1.6h-.76Zm2.81-4.81l-1.25,2.96-.19-.17h2.9l-.15.17-1.28-2.96h-.03Zm4.67,4.81v-5.64h.74v5h2.81v.64h-3.55Zm-69.33,10.07c-.77,0-1.35-.19-1.73-.58-.37-.39-.56-.97-.56-1.74v-3.39h.75v3.37c0,.56.12.98.37,1.26.25.28.63.42,1.17.42s.9-.14,1.15-.42c.26-.28.39-.7.39-1.26v-3.37h.74v3.39c0,.76-.19,1.34-.58,1.74-.38.39-.95.58-1.7.58Zm4.62-.07v-5.64h.58l3.54,4.67h-.19v-4.67h.7v5.64h-.57l-3.54-4.67h.18v4.67h-.7Zm6.98,0v-5.64h.74v5.64h-.74Zm4.89,0l-2.47-5.64h.81l2.15,5.02h-.27l2.16-5.02h.78l-2.49,5.64h-.66Zm4.84,0v-5.64h3.65v.61h-2.93v1.86h2.74v.61h-2.74v1.95h2.93v.61h-3.65Zm5.72,0v-5.64h2.34c.6,0,1.07.14,1.39.42.33.28.5.68.5,1.18,0,.34-.07.62-.22.86-.15.23-.36.41-.63.54-.27.12-.58.18-.94.18l.14-.11h.19c.22,0,.41.06.58.17.17.11.31.28.42.53l.8,1.87h-.82l-.78-1.86c-.09-.23-.22-.38-.4-.45-.17-.07-.39-.1-.65-.1h-1.18v2.41h-.74Zm.74-2.98h1.48c.41,0,.72-.09.94-.26.22-.18.33-.43.33-.77s-.11-.58-.33-.75c-.21-.18-.53-.26-.94-.26h-1.48v2.05Zm7.67,3.06c-.45,0-.86-.06-1.22-.18-.36-.12-.68-.28-.94-.5l.26-.59c.19.14.38.26.57.35.19.09.4.16.62.21.22.04.47.06.73.06.46,0,.81-.08,1.02-.25.22-.17.34-.39.34-.67,0-.24-.08-.42-.23-.55-.15-.13-.42-.23-.81-.3l-.86-.18c-.52-.11-.9-.28-1.16-.52-.25-.25-.38-.58-.38-.99,0-.34.09-.63.26-.88.18-.26.43-.45.74-.59.32-.14.69-.21,1.12-.21.39,0,.76.06,1.1.18.34.12.62.29.85.52l-.26.57c-.24-.22-.5-.38-.78-.47-.27-.1-.58-.15-.93-.15-.42,0-.75.09-1,.27-.25.18-.37.43-.37.74,0,.25.08.44.23.58.15.14.41.25.77.32l.86.17c.54.11.94.27,1.19.5.26.23.38.55.38.95,0,.32-.09.6-.26.85-.17.24-.41.43-.73.56-.31.13-.69.2-1.12.2Zm4.16-.07v-5.64h.74v5.64h-.74Zm4.46,0v-5.01h-1.95v-.63h4.66v.63h-1.96v5.01h-.75Zm5.97,0v-2.64l.16.49-2.35-3.49h.86l1.81,2.75h-.18l1.81-2.75h.84l-2.35,3.49.15-.49v2.64h-.74Z"/>
    <line class="cls-4" x1="90.62" y1="12" x2="90.62" y2="88"/>
  </g>
</svg>